{"title":"Snapper Hero Snapchat Session 1 (03/10/2015) (Unedited)","uid":11746538,"size":44497537,"categoryP":"video","categoryS":"handheld","magnet":"?xt=urn:btih:cb931e02abdc3ebe133d7cfb9227db07e85c1195&amp;dn=Snapper+Hero+Snapchat+Session+1+%2803%2F10%2F2015%29+%28Unedited%29&amp;tr=udp%3A%2F%2Ftracker.openbittorrent.com%3A80&amp;tr=udp%3A%2F%2Fopen.demonii.com%3A1337&amp;tr=udp%3A%2F%2Ftracker.coppersurfer.tk%3A6969&amp;tr=udp%3A%2F%2Fexodus.desync.com%3A6969","seeders":1,"leechers":1,"uploader":"geiszla","files":32,"time":1426047953,"description":"Episode 1 from Snapper Hero (03/10/2015)\n\nTech Specs:\nGeneral\nComplete name                  : C:[...]snapperhero-10-03-2015-22_53_00.mov\nFormat                         : MPEG-4\nFormat profile                 : Base Media / Version 2\nCodec ID                       : mp42\nFile size                      : 1.77 MiB\nDuration                       : 7s 967ms\nOverall bit rate               : 1 864 Kbps\nEncoded date                   : UTC 2015-03-10 19:51:18\nTagged date                    : UTC 2015-03-10 19:51:19\n\nVideo\nID                             : 2\nFormat                         : AVC\nFormat/Info                    : Advanced Video Codec\nFormat profile                 : &lt;a class=&quot;__cf_email__&quot; href=&quot;/cdn-cgi/l/email-protection&quot; data-cfemail=&quot;c28aaba5aa828ef1ecf2&quot;&gt;[email&amp;#160;protected]&lt;/a&gt;&lt;script cf-hash='f9e31' type=&quot;text/javascript&quot;&gt;\n/* &lt;![CDATA[ */!function(){try{var t=&quot;currentScript&quot;in document?document.currentScript:function(){for(var t=document.getElementsByTagName(&quot;script&quot;),e=t.length;e--;)if(t[e].getAttribute(&quot;cf-hash&quot;))return t[e]}();if(t&amp;&amp;t.previousSibling){var e,r,n,i,c=t.previousSibling,a=c.getAttribute(&quot;data-cfemail&quot;);if(a){for(e=&quot;&quot;,r=parseInt(a.substr(0,2),16),n=2;a.length-n;n+=2)i=parseInt(a.substr(n,2),16)^r,e+=String.fromCharCode(i);e=document.createTextNode(e),c.parentNode.replaceChild(e,c)}}}catch(u){}}();/* ]]&gt; */&lt;/script&gt;\nFormat settings, CABAC         : Yes\nFormat settings, ReFrames      : 2 frames\nCodec ID                       : avc1\nCodec ID/Info                  : Advanced Video Coding\nDuration                       : 7s 967ms\nBit rate                       : 1 606 Kbps\nWidth                          : 376 pixels\nHeight                         : 668 pixels\nDisplay aspect ratio           : 0.563\nFrame rate mode                : Constant\nFrame rate                     : 30.000 fps\nColor space                    : YUV\nChroma subsampling             : 4:2:0\nBit depth                      : 8 bits\nScan type                      : Progressive\nBits/(Pixel*Frame)             : 0.213\nStream size                    : 1.53 MiB (86%)\nTitle                          : Core Media Video\nEncoded date                   : UTC 2015-03-10 19:51:19\nTagged date                    : UTC 2015-03-10 19:51:19\nColor primaries                : BT.709\nTransfer characteristics       : BT.709\nMatrix coefficients            : BT.601\nColor range                    : Limited\n\nAudio\nID                             : 1\nFormat                         : AAC\nFormat/Info                    : Advanced Audio Codec\nFormat profile                 : LC\nCodec ID                       : 40\nDuration                       : 7s 963ms\nSource duration                : 8s 34ms\nBit rate mode                  : Constant\nBit rate                       : 256 Kbps\nChannel(s)                     : 2 channels\nChannel positions              : Front: L R\nSampling rate                  : 44.1 KHz\nCompression mode               : Lossy\nStream size                    : 244 KiB (13%)\nSource stream size             : 245 KiB (14%)\nTitle                          : Core Media Audio\nEncoded date                   : UTC 2015-03-10 19:51:19\nTagged date                    : UTC 2015-03-10 19:51:19\n\nNote: I just uploaded this torrent for those who are not able to watch it on snapchat. Please do it, if you can!","torrent":{"xt":"urn:btih:cb931e02abdc3ebe133d7cfb9227db07e85c1195","amp;dn":"Snapper+Hero+Snapchat+Session+1+%2803%2F10%2F2015%29+%28Unedited%29","amp;tr":["udp%3A%2F%2Ftracker.openbittorrent.com%3A80","udp%3A%2F%2Fopen.demonii.com%3A1337","udp%3A%2F%2Ftracker.coppersurfer.tk%3A6969","udp%3A%2F%2Fexodus.desync.com%3A6969"],"infoHash":"cb931e02abdc3ebe133d7cfb9227db07e85c1195","infoHashBuffer":{"type":"Buffer","data":[203,147,30,2,171,220,62,190,19,61,124,251,146,39,219,7,232,92,17,149]},"announce":[],"urlList":[]}}